<?xml version="1.0" encoding="utf-8"?>
<!-- Generator: Adobe Illustrator 27.8.0, SVG Export Plug-In . SVG Version: 6.00 Build 0)  -->
<svg version="1.1" id="Layer_1" xmlns="http://www.w3.org/2000/svg" xmlns:xlink="http://www.w3.org/1999/xlink" x="0px" y="0px"
	 viewBox="0 0 2634 537.9" style="enable-background:new 0 0 2634 537.9;" xml:space="preserve">
<style type="text/css">
	.Drop_x0020_Shadow{fill:none;}
	.Outer_x0020_Glow_x0020_5_x0020_pt{fill:none;}
	.Blue_x0020_Neon{fill:none;stroke:#8AACDA;stroke-width:7;stroke-linecap:round;stroke-linejoin:round;}
	.Chrome_x0020_Highlight{fill:url(#SVGID_1_);stroke:#FFFFFF;stroke-width:0.3629;stroke-miterlimit:1;}
	.Jive_GS{fill:#FFDD00;}
	.Alyssa_GS{fill:#A6D0E4;}
	.st0{fill:#FFFFFF;}
	.st1{fill:url(#SVGID_00000145781347370776692070000016761627295711998137_);}
	.st2{fill:#E83382;}
</style>
<linearGradient id="SVGID_1_" gradientUnits="userSpaceOnUse" x1="633.9828" y1="-115.5711" x2="633.9828" y2="-116.5711">
	<stop  offset="0" style="stop-color:#656565"/>
	<stop  offset="0.618" style="stop-color:#1B1B1B"/>
	<stop  offset="0.6292" style="stop-color:#545454"/>
	<stop  offset="0.9831" style="stop-color:#3E3E3E"/>
</linearGradient>
<g>
	<path class="st0" d="M256.1,506.3L0,537.9l186.4-276.5L396.6,298L256.1,506.3z M291.3,105.6l-35.8,53.1h714.4
		c78.1,0,151-38.8,194.8-103.6L1200.5,2H486.1C408,2,335.1,40.8,291.3,105.6 M686.6,193.1L552.6,392l149.1-18.4l121.7-180.5H686.6z
		 M865,193.1l-118,175l96-11.8c33.7-4.2,64.1-22.8,83.1-51l75.7-112.3H865V193.1z M45.8,193.1l-5.3,7.8l414.3,72.1l-96.2,142.8
		l148.7-18.2l137.8-204.4H45.8V193.1z"/>
	<path class="st0" d="M2333.7,2.2h-158L2152.9,36h103.6L2152.9,159h177.7v-33.8H2230L2333.7,2.2z M1359.8,36h117.3l22.8-33.8h-180.4
		v156.7h40.2v-49h111.1V75.8h-111.1V36H1359.8z M2493.9,95.6l32-63.6l31.8,63.6H2493.9z M2589.4,159h44.5L2553,2.2h-54.4
		l-80.8,156.7h44.3l16.8-33.4h93.7L2589.4,159z M1669,127.4c-20.8,0-35.6-3.8-44.6-11.3s-13.5-19.5-13.5-35.7s4.5-28.1,13.5-35.5
		c9.1-7.4,23.9-11.1,44.6-11.1c20.8,0,35.6,3.8,44.6,11.2c9.1,7.5,13.5,19.2,13.5,35.4c0,16.3-4.5,28.2-13.7,35.7
		C1704.5,123.6,1689.7,127.4,1669,127.4 M1669,161.2c33.7,0,58.6-6.9,74.5-20.5c15.9-13.7,24-33.7,24-60.4c0-26.4-8-46.4-24-60
		C1727.6,6.7,1702.7,0,1669,0c-33.8,0-58.7,6.7-74.6,20.2c-15.9,13.5-23.9,33.5-23.9,60.1c0,26.8,8,46.9,23.9,60.5
		C1610.4,154.3,1635.2,161.2,1669,161.2 M2061.6,159h-55l-92.8-75.6h66.3c13.7,0,29.8-1.9,29.8-22.4v-2.3
		c0-20.6-16.2-22.4-29.8-22.4h-72.6v122.9h-40.2V2.2h36.6h87.3c32.6,0,59.1,21.9,59.1,54.6c0,29.9-22.1,50.7-50.7,54.2L2061.6,159z"
		/>
	<g>
		
			<linearGradient id="SVGID_00000061461612061645209660000002537611559583851939_" gradientUnits="userSpaceOnUse" x1="1271.6722" y1="353.7289" x2="2436.7676" y2="353.7289">
			<stop  offset="0" style="stop-color:#EF6332"/>
			<stop  offset="1" style="stop-color:#E83382"/>
		</linearGradient>
		<path style="fill:url(#SVGID_00000061461612061645209660000002537611559583851939_);" d="M2436.8,218.2L2436.8,218.2l-1122.9,0
			l-42.2,271h1118.7L2436.8,218.2L2436.8,218.2L2436.8,218.2z"/>
	</g>
	<g>
		<polygon class="st0" points="2436.8,218.2 2436.8,218.2 2436.8,218.2 		"/>
	</g>
	<g>
		<polygon class="st0" points="1453,466.7 1488.4,243.1 1427.9,243.1 1415.2,323.1 1386.5,323.1 1399.2,243.1 1338.7,243 
			1303.2,466.7 1363.7,466.7 1378.1,375.9 1406.9,375.9 1392.5,466.7 		"/>
		<path class="st0" d="M1544.6,470.5c61.4,0,95.1-61.1,103.7-115.7c8.6-54.6-5.7-115.7-67.1-115.7c-61.4,0-95.1,61.1-103.7,115.7
			C1468.9,409.5,1483.2,470.5,1544.6,470.5z M1539.2,354.9c2.2-13.9,10.3-59.3,33.1-59.3c22.8,0,16.5,45.4,14.3,59.3
			c-2.2,13.9-10.3,59.3-33.1,59.3C1530.7,414.2,1537,368.8,1539.2,354.9z"/>
		<polygon class="st0" points="1899.1,243.1 1838.6,243.1 1803.2,466.7 1863.7,466.7 		"/>
		<path class="st0" d="M1810,317.5c9.3-59-26.2-74.4-78.7-74.4l-58.4,0l-35.4,223.6l60.5,0l9.4-59.6c1.7-11,2.9-21.9,4.3-32.9
			l0.7-0.6l18.8,93.1h65.6l-30.3-93.1C1791.9,364.1,1806.1,342.1,1810,317.5z M1749.9,318.1c-2.3,14.5-13.1,28.5-29.1,28.5l-3.8-0.3
			l8.7-55.2C1742.5,290.2,1753.1,298.5,1749.9,318.1z"/>
		<path class="st0" d="M2065.2,243.1l-148,0l-8.4,52.8h26.7c13,0,26.6-1.2,38.5-1.8c-7.8,10.1-16.3,20.8-22,30.5l-83.6,142.1
			l153.9,0l8.4-52.8h-34.4c-11.6,0-23.1,1.8-34.2,2.7c4-6.8,8.6-13.3,12.7-20.5L2065.2,243.1z"/>
		<polygon class="st0" points="2436.6,218.2 2436.6,218.2 2436.6,218.2 		"/>
		<path class="st0" d="M2265.6,401.2c3.3-21.1,4-41.8,5.8-62.9l0.7-0.6l24.6,129h58.1l35.4-223.6l-58.1,0l-9,56.9
			c-4.1,25.8-3.7,51.3-5.4,77.1l-0.7,0.6l-27-134.7l-57.5,0l-35.4,223.6h58.1L2265.6,401.2z"/>
		<path class="st0" d="M2104.2,470.6c61.4,0,95.1-61.1,103.7-115.7c8.6-54.6-5.7-115.7-67.1-115.7c-61.4,0-95.1,61.1-103.7,115.7
			C2028.5,409.5,2042.8,470.6,2104.2,470.6z M2098.8,354.9c2.2-13.9,10.3-59.3,33.1-59.3c22.8,0,16.5,45.4,14.3,59.3
			c-2.2,13.9-10.3,59.3-33.1,59.3C2090.3,414.2,2096.6,368.9,2098.8,354.9z"/>
	</g>
	<path class="st2" d="M2540.1,312.3c0,0,30-50.1,74.7-93.5h-79.3c0,0-77.5,86.4-92.6,167.3c-15.1,80.9,34,105,79.1,105
		c45.1,0,85.2-39.4,94.6-103.8S2584,291.8,2540.1,312.3z M2540,410.6c-6.7,21.3-23.1,25.1-28.3,15.3c-5.2-9.9-1.9-33.1,4.5-49.5
		c6.4-16.4,15.6-16.9,15.6-16.9C2551.5,356.8,2546.7,389.3,2540,410.6z"/>
</g>
</svg>
